<?xml version="1.0" encoding="UTF-8"?>
<svg width="42px" height="43px" viewBox="0 0 42 43" version="1.1" xmlns="http://www.w3.org/2000/svg" xmlns:xlink="http://www.w3.org/1999/xlink">
    <!-- Generator: Sketch 52.5 (67469) - http://www.bohemiancoding.com/sketch -->
    <title>9</title>
    <desc>Created with Sketch.</desc>
    <g id="Page-1" stroke="none" stroke-width="1" fill="none" fill-rule="evenodd">
        <g id="切图" transform="translate(-384.000000, -425.000000)" fill="#71C18F">
            <g id="9" transform="translate(384.000000, 425.000000)">
                <polygon id="路径" points="18.0695087 30.6991348 9.52089605 22.1593135 12.749142 18.927759 18.069556 24.2427374 29.1847424 13.1386585 32.4130828 16.370213 18.069556 30.6991348"></polygon>
                <path d="M20.9669894,0.974221272 C9.39951779,0.974221272 0.0222904683,10.3514486 0.0222904683,21.9189203 C0.0222904683,33.4863919 9.39951779,42.863572 20.9669422,42.863572 C32.5343666,42.863572 41.9116412,33.4862974 41.9116412,21.918873 C41.9116412,10.3514486 32.5344611,0.974221272 20.9669894,0.974221272 Z M20.9669894,39.7991489 C11.0920073,39.7991489 3.08671357,31.7938552 3.08671357,21.918873 C3.08671357,12.0438908 11.0920073,4.0385971 20.9669894,4.0385971 C30.8419716,4.0385971 38.8472181,12.0439853 38.8472181,21.918873 C38.8472181,31.7937607 30.8419716,39.7991489 20.9669422,39.7991489 L20.9669894,39.7991489 Z" id="形状" fill-rule="nonzero"></path>
            </g>
        </g>
    </g>
</svg>