<?xml version="1.0" encoding="UTF-8"?>
<svg width="78px" height="78px" viewBox="0 0 78 78" version="1.1" xmlns="http://www.w3.org/2000/svg" xmlns:xlink="http://www.w3.org/1999/xlink">
    <!-- Generator: Sketch 52.5 (67469) - http://www.bohemiancoding.com/sketch -->
    <title>电子版</title>
    <desc>Created with Sketch.</desc>
    <defs>
        <linearGradient x1="83.9847138%" y1="82.3104211%" x2="0%" y2="31.0992926%" id="linearGradient-1">
            <stop stop-color="#5596FF" offset="0%"></stop>
            <stop stop-color="#72A8FF" offset="100%"></stop>
        </linearGradient>
    </defs>
    <g id="Page-1" stroke="none" stroke-width="1" fill="none" fill-rule="evenodd">
        <g id="首页" transform="translate(-809.000000, -288.000000)">
            <g id="电子版" transform="translate(809.000000, 288.000000)">
                <circle id="椭圆形" fill="url(#linearGradient-1)" fill-rule="nonzero" cx="39" cy="39" r="39"></circle>
                <g id="分组" transform="translate(18.000000, 18.000000)" fill="#FFFFFF">
                    <path d="M4.89360471,0 C2.20596443,0 0.018928256,2.23001717 0.018928256,4.97099652 L0.018928256,38.0074345 C0.018928256,40.7476038 2.20596863,42.9768362 4.89360471,42.9768362 L29.9673744,42.9768362 L29.9673744,40.5438712 L4.89360471,40.5438712 C3.52073537,40.5438712 2.40413614,39.4057835 2.40413614,38.0066497 L2.40413614,4.97100911 C2.40413614,3.57187523 3.52073537,2.43299019 4.89360471,2.43299019 L33.8965614,2.43299019 L33.8965614,21.4884139 L36.2817735,21.4884139 L36.2817735,0 L4.89360471,1.67878102e-05 L4.89360471,0 Z" id="路径"></path>
                    <path d="M8.49492576,8.80545828 L27.8901767,8.80545828 L27.8901767,11.1198384 L8.49492576,11.1198384 L8.49492576,8.80545828 Z M25.0171109,15.6594595 C24.482289,15.1294138 23.5909192,15.1795506 23.0258541,15.7724726 L18.4432436,20.5818864 L14.0492441,15.9706527 C13.484179,15.3785298 12.5928093,15.3275914 12.0579874,15.8576396 C11.523963,16.3868921 11.547042,17.2965648 12.1121063,17.8894851 L16.559407,22.5588466 L12.4368203,26.8867861 C11.8725526,27.4805038 11.8470813,28.3885858 12.3827014,28.9202264 C12.9175233,29.4502721 13.808893,29.3993379 14.3731649,28.8064176 L18.4424294,24.5358085 L22.7003217,29.0053951 C23.2661842,29.5967248 24.1567566,29.6484564 24.6923759,29.1184082 C25.2279951,28.5867676 25.2041187,27.6778881 24.6390527,27.0849679 L20.3262643,22.5580929 L24.9629735,17.6913486 C25.5280386,17.0992258 25.5511177,16.1887515 25.0170924,15.6595032 L25.0171109,15.6594595 Z" id="形状" fill-rule="nonzero"></path>
                    <path d="M41.4041961,30.962388 C41.4129506,28.6567627 40.9083723,26.7992083 39.9008057,25.4406673 C38.8757294,24.0574525 37.3874607,23.3515167 35.4471255,23.3427618 C33.4351736,23.3427618 31.7686309,24.127487 30.49682,25.6746516 C29.2329833,27.2106733 28.5875382,29.1263261 28.5771885,31.3658872 C28.5676381,33.9389255 29.1724968,35.9715809 30.373459,37.4089113 C31.5863615,38.8597768 33.2027632,39.5999304 35.1749406,39.6094826 L35.2155298,39.6094826 C37.116061,39.6094826 38.8693547,39.0428269 40.4244935,37.9294089 L40.5558115,37.8339048 L40.564566,35.5951328 L40.0615781,35.9890868 C38.5677358,37.1574177 37.0245499,37.7487473 35.4471546,37.7487473 C33.9095423,37.7431763 32.7420047,37.2099468 31.8745114,36.1196079 C31.0523829,35.0841861 30.6162482,33.6420754 30.5780433,31.8275104 L41.4002213,31.8728748 L41.4042006,30.9624047 L41.4041961,30.962388 Z M30.6806885,29.9786978 C30.9178566,28.4808768 31.4375585,27.3101579 32.2246676,26.4959868 C33.0690819,25.6268987 34.1053011,25.204295 35.3946049,25.204295 L35.3946049,24.8891319 L35.4168892,25.204295 C36.65128,25.209866 37.5864198,25.638839 38.2764366,26.5190659 C38.9274553,27.351544 39.3023103,28.5254442 39.3930358,30.0161053 L30.680666,29.9786995 L30.6806885,29.9786978 Z" id="形状" fill-rule="nonzero"></path>
                </g>
            </g>
        </g>
    </g>
</svg>