<svg id="图层_1" data-name="图层 1" xmlns="http://www.w3.org/2000/svg" viewBox="0 0 1025.45 303.23"><defs><style>.cls-1,.cls-2,.cls-3{fill:#005bac;}.cls-2{font-size:160.64px;font-family:HYb2gj, HYDaHeiJ;}.cls-3{font-size:62.32px;font-family:Helvetica-Bold, Helvetica;font-weight:700;}</style></defs><title>中化资本--标准色</title><path class="cls-1" d="M257.49,151.64v-.09A106.09,106.09,0,0,0,193.36,54.1V22.68L208.5,7.55h0V0H94.78V7.55h0L110,22.75V53.93a106.08,106.08,0,0,0-64.62,97.6v.11H0c-.14,83.73,67.76,151.59,151.52,151.59A151.74,151.74,0,0,0,303.26,151.64Zm-106,144c-77,0-140-60.44-143.86-136.43H45.69a106,106,0,0,0,211.51,0h38.28C291.37,235.22,228.46,295.66,151.44,295.66ZM117.62,59.08V51a.18.18,0,0,0-.11,0V19.12L106,7.55h91.3L185.75,19.12l0,0V51.2h0v7.94a98.54,98.54,0,0,1,64.37,92.43h-197A98.62,98.62,0,0,1,117.62,59.08Z"/><path class="cls-1" d="M33.78,195.6a24.82,24.82,0,0,0,.31-7.8l-.66-7.59a33.35,33.35,0,0,1-.21-5.83c.15-1.5.76-2.33,1.79-2.63a2.93,2.93,0,0,1,3.14,1.42,13.52,13.52,0,0,1,2.32,5.22,16.89,16.89,0,0,1,.66,5.32C40.9,186,40,187.4,38.28,188l2.15,8.48c3.1-.95,5.1-3.24,5.9-6.8a24.74,24.74,0,0,0-.46-12c-1.39-5.39-3.28-9.18-5.72-11.49s-5-3.14-7.65-2.44c-2.87.7-4.63,2.65-5.25,5.87-.39,1.91-.37,5.13.08,9.71l.43,4.69a25.27,25.27,0,0,1,.08,6.12c-.18,1.38-.76,2.15-1.72,2.38-1.7.44-3.15-.49-4.4-2.84a23.33,23.33,0,0,1-1.76-5c-.91-3.46-.92-6.11-.1-7.82a5.18,5.18,0,0,1,2.59-2.29l-2.16-8.46c-3.06.7-5,2.9-6,6.51s-.71,8.16.68,13.67,3.35,9.33,5.87,11.85,5.14,3.37,7.89,2.67A6.68,6.68,0,0,0,33.78,195.6Z"/><polygon class="cls-1" points="52.75 202.32 27.08 218.63 31.93 226.28 57.63 210 52.75 202.32"/><polygon class="cls-1" points="82.63 237.39 68.01 252.5 70.21 225.41 63.37 218.79 42.24 240.67 48.3 246.52 63.18 231.13 61.03 258.84 67.53 265.12 88.67 243.22 82.63 237.39"/><path class="cls-1" d="M113.12,253.84c-5.83-2.16-10.66-2.72-14.56-1.64Q91,253.7,88,261.53c-1.87,5.09-1.32,9.78,1.8,14,2.26,3.39,6.29,6.11,12.08,8.38,5.83,2.09,10.66,2.69,14.56,1.65A14.09,14.09,0,0,0,127,276.12c1.93-5.15,1.35-9.86-1.78-13.95C122.93,258.78,118.93,256,113.12,253.84Zm5.34,19.1a9.89,9.89,0,0,1-5.71,6.27c-2.6,1-5.6.83-9-.42a12.3,12.3,0,0,1-7.06-5.62c-1.36-2.46-1.42-5.3-.25-8.46s3.12-5.3,5.77-6.25,5.62-.81,9,.38a12.82,12.82,0,0,1,7,5.62C119.59,266.92,119.65,269.76,118.46,272.94Z"/><path class="cls-1" d="M165.11,284.51c-1.56,1.59-3.84,2.46-6.94,2.59a10.86,10.86,0,0,1-7.58-2.12c-2.05-1.61-3.14-4.14-3.35-7.53s.62-6.1,2.39-8.05,4.27-3,7.49-3.22,5.55.36,7.25,1.61a7.67,7.67,0,0,1,2.35,3.18l9.05-.54a9,9,0,0,0-3.25-5.42c-3.5-3.16-8.85-4.56-16.06-4.16-5.37.3-9.77,1.74-13.12,4.46-3.83,3-5.62,7.22-5.35,12.5a14.11,14.11,0,0,0,5.89,11.26c3.69,2.57,8.58,3.71,14.72,3.37q7.49-.35,12.1-3.73a13.26,13.26,0,0,0,5.5-8.35l-9,.48A8.21,8.21,0,0,1,165.11,284.51Z"/><polygon class="cls-1" points="205.89 246.29 211.04 256.7 195.99 264.2 190.82 253.84 182.71 257.89 196.32 285.13 204.45 281.06 198.35 268.91 213.43 261.36 219.5 273.53 227.59 269.48 214 242.26 205.89 246.29"/><polygon class="cls-1" points="247.76 245.74 241.82 240.48 255.54 225.05 251.57 221.55 237.9 237 233.01 232.7 247.92 215.81 243.92 212.22 223.12 235.73 245.93 255.91 267.43 231.62 263.38 228.08 247.76 245.74"/><path class="cls-1" d="M269.3,174.26,289,180.17l2.4-8.08L262.3,163.4l-3.72,12.51,20.7,14.35-25.24.79-3.74,12.61,29.18,8.69,2.43-8.08-19.76-5.85c-.58-.19-1.37-.42-2.4-.72s-1.81-.47-2.38-.63l26.81-.58,2.51-8.5-22.09-15.2c.57.19,1.33.47,2.34.75S268.76,174.13,269.3,174.26Z"/><text class="cls-2" transform="translate(382.9 155.73)">中化资本</text><text class="cls-3" transform="translate(390.51 251.18)">SINOCHEM CAPITAL</text></svg>