<?xml version="1.0" encoding="UTF-8"?>
<svg width="1164px" height="48px" viewBox="0 0 1164 48" version="1.1" xmlns="http://www.w3.org/2000/svg" xmlns:xlink="http://www.w3.org/1999/xlink">
    <!-- Generator: Sketch 52.5 (67469) - http://www.bohemiancoding.com/sketch -->
    <title>路径</title>
    <desc>Created with Sketch.</desc>
    <g id="Page-1" stroke="none" stroke-width="1" fill="none" fill-rule="evenodd" fill-opacity="0.1">
        <g id="首页" transform="translate(-266.000000, -170.000000)" fill-rule="nonzero">
            <g id="路径" transform="translate(266.000000, 108.000000)">
                <path d="M-45,113.14622 C-9.02568172,93.7072463 36.6340299,84.3695435 91.979135,85.1331115 C174.996793,86.2784634 176.034513,105.475184 254.901288,105.475184 C333.768063,105.475184 351.804692,65 432.351531,65 C512.89837,65 499.803378,105.475184 647.15972,105.475184 C794.516062,105.475184 785.87557,79.4373311 907.627621,79.4373311 C1029.37967,79.4373311 1024.9351,105.475184 1136.9639,105.475184 C1211.64976,105.475184 1211.64976,110.649345 1136.9639,120.997665 L-45,114.488202 L-45,113.14622 Z" fill="#4A90E2"></path>
                <path d="M-1.32227488,105.219162 C94.6777251,84.1952227 93.6777251,62.4462551 159.677725,62.4462551 C225.677725,62.4462551 256.677725,98.368512 333.677725,98.368512 C410.677725,98.368512 469,62.4462551 547,62.4462551 C625,62.4462551 625.677725,100.081174 767.677725,100.081174 C909.677725,100.081174 884,62.4462551 970,62.4462551 C1000.66667,62.4462551 1035.33333,70.6308367 1074,87 C1112.51241,99.2870609 1150.07166,105.430591 1186.67773,105.430591 C1258.64879,105.430591 1258.64879,105.892605 1186.67773,106.816633 L17.6777251,120.077153 C-58.9889415,124.187785 -65.3222749,119.235121 -1.32227488,105.219162 Z" id="路径-copy" fill="#B6B6F6"></path>
            </g>
        </g>
    </g>
</svg>