<?xml version="1.0" encoding="UTF-8"?>
<svg width="78px" height="78px" viewBox="0 0 78 78" version="1.1" xmlns="http://www.w3.org/2000/svg" xmlns:xlink="http://www.w3.org/1999/xlink">
    <!-- Generator: Sketch 52.5 (67469) - http://www.bohemiancoding.com/sketch -->
    <title>纸质版</title>
    <desc>Created with Sketch.</desc>
    <defs>
        <linearGradient x1="83.9847138%" y1="82.3104211%" x2="0%" y2="31.0992926%" id="linearGradient-1">
            <stop stop-color="#5596FF" offset="0%"></stop>
            <stop stop-color="#72A8FF" offset="100%"></stop>
        </linearGradient>
    </defs>
    <g id="Page-1" stroke="none" stroke-width="1" fill="none" fill-rule="evenodd">
        <g id="首页" transform="translate(-1204.000000, -288.000000)">
            <g id="纸质版" transform="translate(1204.000000, 288.000000)">
                <circle id="椭圆形" fill="url(#linearGradient-1)" fill-rule="nonzero" cx="39" cy="39" r="39"></circle>
                <g id="错题本-纸质版" transform="translate(18.000000, 18.000000)" fill="#FFFFFF">
                    <path d="M32.1128303,2.38526638 L32.1128303,40.549519 L3.98815528,40.5495116 C3.10676776,40.5521535 2.38963943,39.8407145 2.3852579,38.9593354 L2.3852579,3.97545095 C2.3852579,3.0984702 3.10401725,2.38527476 3.98815519,2.38527476 L32.1128303,2.38526638 Z M34.4980966,-8.38542395e-06 L3.988151,8.38597698e-06 C1.78575579,8.38597698e-06 -1.26708035e-05,1.78021293 -1.26708035e-05,3.97545095 L-1.26708035e-05,38.9593354 C-1.26708035e-05,41.1553701 1.78575579,42.934778 3.988151,42.934778 L34.4980966,42.934778 L34.4980966,-8.38542395e-06 Z M37.3564422,8.38597698e-06 L41.3446059,8.38597698e-06 L41.3446059,42.9347948 L37.3564422,42.9347948 L37.3564422,8.38597698e-06 Z" id="形状" fill-rule="nonzero"></path>
                    <path d="M7.17887238,8.87873772 L27.0536953,8.87873772 L27.0536953,11.1980128 L7.17887238,11.1980128 L7.17887238,8.87873772 Z M23.7763539,29.2298265 C23.228537,29.7609474 22.3149821,29.7100588 21.7361549,29.1169239 L10.8855616,17.9801267 C10.3067387,17.3869893 10.2828855,16.4750234 10.8299053,15.9446992 C11.3785146,15.4143749 12.2912771,15.4644669 12.8708968,16.0583967 L23.72149,27.1936006 C24.2995205,27.7875304 24.3257594,28.6979072 23.776351,29.2298206 L23.7763539,29.2298265 Z" id="形状" fill-rule="nonzero"></path>
                    <path d="M11.1630445,29.0310854 C11.7108613,29.5622063 12.6244163,29.5113177 13.2032435,28.9181828 L24.0538367,17.7813856 C24.6326597,17.1882482 24.6565128,16.2762823 24.1086976,15.7459581 C23.5608808,15.2156338 22.6473258,15.2657258 22.0677062,15.8596556 L11.2179096,26.9940629 C10.6390866,27.5887893 10.6136402,28.4991661 11.1630487,29.0310795 L11.1630445,29.0310854 Z" id="路径"></path>
                </g>
            </g>
        </g>
    </g>
</svg>