<?xml version="1.0" encoding="UTF-8"?>
<svg width="78px" height="78px" viewBox="0 0 78 78" version="1.1" xmlns="http://www.w3.org/2000/svg" xmlns:xlink="http://www.w3.org/1999/xlink">
    <!-- Generator: Sketch 52.5 (67469) - http://www.bohemiancoding.com/sketch -->
    <title>付款申请</title>
    <desc>Created with Sketch.</desc>
    <defs>
        <linearGradient x1="83.9847138%" y1="82.3104211%" x2="0%" y2="31.0992926%" id="linearGradient-1">
            <stop stop-color="#5596FF" offset="0%"></stop>
            <stop stop-color="#72A8FF" offset="100%"></stop>
        </linearGradient>
    </defs>
    <g id="Page-1" stroke="none" stroke-width="1" fill="none" fill-rule="evenodd">
        <g id="首页" transform="translate(-414.000000, -288.000000)">
            <g id="付款申请" transform="translate(414.000000, 288.000000)">
                <circle id="椭圆形" fill="url(#linearGradient-1)" fill-rule="nonzero" cx="39" cy="39" r="39"></circle>
                <g id="付款" transform="translate(18.000000, 18.000000)" fill="#FFFFFF">
                    <polygon id="路径" points="35.2900305 27.8140179 33.7158256 26.2398989 31.802339 28.1533855 29.8888523 26.2398989 28.3146904 27.8140609 29.7609342 29.2547188 27.652756 29.2547188 27.652756 31.4797292 30.6898767 31.4797292 30.6898767 32.8369847 27.652756 32.8369847 27.652756 35.0619521 30.6898767 35.0619521 30.6898767 37.0978139 32.9148442 37.0978139 32.9148442 35.0619521 35.9519649 35.0619521 35.9519649 32.8369847 32.9148442 32.8369847 32.9148442 31.4796862 35.9519649 31.4796862 35.9519649 29.2546758 33.8493296 29.2546758"></polygon>
                    <path d="M2.61603936,6.25944985 L7.17726342,6.25944985 L7.17726342,9.83617277 L31.0570021,9.83617277 L31.0570021,6.25944985 L35.6626989,6.25944985 L35.6626989,19.1199258 L38.221448,19.1199258 L38.221448,3.70074375 L31.0570021,3.70074375 L31.0570021,0.129606783 L7.18284937,0.129606783 L7.18284937,3.70074375 L0.0628762368,3.70074375 L0.0628762368,38.2881785 L19.4369496,38.2881785 L19.4369496,35.7294724 L2.61603936,35.7294724 L2.61603936,6.25944985 Z M9.74155547,2.69389883 L28.5037961,2.69389883 L28.5037961,7.28296667 L9.74155547,7.28296667 L9.74155547,2.69389883 Z" id="形状" fill-rule="nonzero"></path>
                    <path d="M8.46220242,14.3973539 L29.8276648,14.3973539 L29.8276648,16.9561459 L8.46220242,16.9561459 L8.46220242,14.3973539 Z M8.46220242,21.7565343 L21.2114321,21.7565343 L21.2114321,24.3152404 L8.46220242,24.3152404 L8.46220242,21.7565343 Z M8.46220242,28.6206282 L17.6069084,28.6206282 L17.6069084,31.1793343 L8.46220242,31.1793343 L8.46220242,28.6206282 Z M31.802339,21.5952294 C26.2120981,21.5952294 21.6675029,26.1397386 21.6675029,31.7300225 C21.6675029,37.3203063 26.2120551,41.8648585 31.8023819,41.8648585 C37.3927087,41.8648585 41.9372179,37.3203493 41.9372179,31.7300225 C41.9372179,26.1396956 37.3926228,21.5952294 31.8023819,21.5952294 L31.802339,21.5952294 Z M31.802339,39.3061094 C27.6249122,39.3061094 24.226252,35.9074492 24.226252,31.7300225 C24.226252,27.5525957 27.6249552,24.1539355 31.8023819,24.1539355 C35.9798087,24.1539355 39.3784689,27.5526387 39.3784689,31.7300225 C39.3784689,35.9074062 35.9798087,39.3061524 31.8023819,39.3061524 L31.802339,39.3061094 Z" id="形状" fill-rule="nonzero"></path>
                </g>
            </g>
        </g>
    </g>
</svg>