<?xml version="1.0" encoding="UTF-8"?>
<svg width="80px" height="86px" viewBox="0 0 80 86" version="1.1" xmlns="http://www.w3.org/2000/svg" xmlns:xlink="http://www.w3.org/1999/xlink">
    <!-- Generator: Sketch 52.5 (67469) - http://www.bohemiancoding.com/sketch -->
    <title></title>
    <desc>注册完成的图标</desc>
    <defs>
        <linearGradient x1="0%" y1="50%" x2="100%" y2="50%" id="linearGradient-1">
            <stop stop-color="#5BE3A4" offset="0%"></stop>
            <stop stop-color="#0967FF" offset="100%"></stop>
        </linearGradient>
    </defs>
    <g id="Page-1" stroke="none" stroke-width="1" fill="none" fill-rule="evenodd">
        <g id="切图" transform="translate(-470.000000, -1365.000000)" fill="url(#linearGradient-1)" fill-rule="nonzero">
            <path d="M543.711838,1381.93972 C542.187942,1380.8227 540.093203,1379.70568 538.378708,1378.77499 C536.473595,1377.8443 534.7591,1376.72728 533.045578,1375.79659 C529.42597,1373.74888 525.807335,1371.70117 522.188672,1369.65345 C520.474167,1368.72276 518.570037,1367.79207 516.855542,1366.67505 C515.331646,1365.74436 512.665081,1365 509.998517,1365 L509.618277,1365 C507.332929,1365 504.285147,1365.93069 502.95186,1366.67505 C501.237355,1367.79207 499.332251,1368.72276 497.61873,1369.83978 C493.999122,1371.88749 490.380487,1373.74887 486.761824,1375.79659 C485.047319,1376.91361 483.143189,1377.8443 481.428694,1378.96132 C479.715173,1379.89201 477.81006,1380.8227 476.095564,1381.93972 C473.238391,1383.8011 470,1388.08286 470,1392.54998 L470,1423.26369 C470,1427.73081 473.238391,1432.19889 476.095564,1433.87395 C479.333955,1436.10704 483.333807,1437.96937 486.761843,1440.01708 C490.380478,1442.06479 494.000086,1443.92617 497.618749,1446.16022 C499.332271,1447.09091 501.237384,1448.0216 502.951879,1449.13862 C504.475775,1450.06931 507.14234,1451 509.618296,1451 L510.760974,1451 C514.760826,1451 519.713722,1447.64894 522.570924,1445.97389 C525.99895,1443.92713 529.618558,1442.0648 533.238157,1440.01804 C536.666183,1438.15667 540.667009,1436.10896 543.904436,1434.06124 C546.571,1432.19986 550,1427.91907 550,1423.45098 L550,1392.36364 C549.998045,1387.89652 546.569044,1383.61477 543.71187,1381.93973 L543.711838,1381.93972 Z M545.046098,1421.58768 C545.046098,1425.49677 541.998316,1429.21954 539.712969,1430.70921 C536.855795,1432.57059 533.427769,1434.43197 530.379987,1436.10703 C527.141596,1437.9684 524.094787,1439.45809 521.047005,1441.31947 C518.571049,1442.80819 514.18998,1445.78659 510.571355,1445.78659 L509.619289,1445.78659 C507.333941,1445.78659 505.238219,1444.8559 503.904941,1444.11154 C502.190437,1443.18085 500.666551,1442.43649 499.142655,1441.31947 C496.095846,1439.64442 492.857455,1437.9684 489.619064,1436.10703 C486.571282,1434.43198 483.143256,1432.5706 480.286082,1430.70921 C477.810126,1429.22049 474.952953,1425.31139 474.952953,1421.4023 L474.952953,1394.41032 C474.952953,1390.50123 477.810126,1386.77847 480.286082,1385.10342 C481.809978,1384.17273 483.5235,1383.42837 485.047386,1382.49767 C486.380673,1381.56698 488.095168,1380.63629 489.619064,1379.7056 C492.857455,1378.03055 496.095846,1376.3555 499.142655,1374.49411 C500.666551,1373.56342 502.190437,1372.81906 503.714333,1371.88837 C505.04762,1370.95768 507.523576,1370.21332 509.619289,1370.21332 L509.999528,1370.21332 C512.284876,1370.21332 514.571207,1370.77135 516.095093,1371.70204 C517.618989,1372.63273 519.142875,1373.56342 520.666771,1374.30778 C523.905162,1376.16916 526.952944,1377.84421 530.190361,1379.7056 C531.714257,1380.63629 533.238144,1381.56698 534.952648,1382.31134 C536.285935,1383.05571 538.190066,1384.17272 539.524326,1385.10342 C542.000283,1386.59214 545.048065,1390.50123 545.048065,1394.22399 L545.048065,1421.58764 L545.046098,1421.58768 Z M531.446424,1397.47098 C530.969413,1397.00468 529.997796,1397.19865 529.276417,1397.90384 L507.588092,1419.10522 L494.66874,1406.47593 C494.191729,1406.00963 493.418538,1406.00963 492.94153,1406.47593 L491.21432,1408.16436 C490.73731,1408.63067 490.73731,1409.3865 491.21432,1409.8528 L506.761128,1425.05149 C507.238138,1425.51779 508.011329,1425.51779 508.488338,1425.05149 L510.215548,1423.36305 C510.302544,1423.27801 510.3739,1423.18341 510.428639,1423.08213 L532.730849,1401.28064 C533.452229,1400.57545 533.650658,1399.62565 533.173647,1399.15935 L531.446437,1397.47092 L531.446424,1397.47098 Z" id="icon24"></path>
        </g>
    </g>
</svg>